<?xml version="1.0"?>
<svg xmlns="http://www.w3.org/2000/svg" xmlns:xlink="http://www.w3.org/1999/xlink" width="800" height="800" viewBox="0 0 15588 15588" >
<defs>
	<polygon id="hextile" stroke="black" stroke-width="30" points="500,0 1500,0 2000,866 1500,1732 500,1732 0,866" />

	<mask id="m-c-arc-0" maskUnits="userSpaceOnUse" >
		<rect height="2000" width="1732" fill="white" />
		<path d="M1750 433 Q1000 866, 1750 1299" stroke="black" fill="none" stroke-width="250" />
	</mask>

	<mask id="m-c-arc-1" maskUnits="userSpaceOnUse" >
		<rect height="2000" width="1732" fill="white" />
		<path d="M1750 1299 Q1000 866, 1000 1732" stroke="black" fill="none" stroke-width="250" />
	</mask>

	<mask id="m-c-arc-2" maskUnits="userSpaceOnUse" >
		<rect height="2000" width="1732" fill="white" />
		<path d="M1000 1732 Q1000 866, 250 1299" stroke="black" fill="none" stroke-width="250" />
	</mask>

	<mask id="m-c-arc-3" maskUnits="userSpaceOnUse" >
		<rect height="2000" width="1732" fill="white" />
		<path d="M250 1299 Q1000 866, 250 433" stroke="black" fill="none" stroke-width="250" />
	</mask>

	<mask id="m-c-arc-4" maskUnits="userSpaceOnUse" >
		<rect height="2000" width="1732" fill="white" />
		<path d="M250 433 Q1000 866, 1000 0" stroke="black" fill="none" stroke-width="250" />
	</mask>

	<mask id="m-c-arc-5" maskUnits="userSpaceOnUse" >
		<rect height="2000" width="1732" fill="white" />
		<path d="M1000 0 Q1000 866, 1750 433" stroke="black" fill="none" stroke-width="250" />
	</mask>

	<mask id="m-cat-arc-0" maskUnits="userSpaceOnUse" >
		<rect height="2000" width="1732" fill="white" />
		<path d="M1750 433 Q1000 866, 1000 1732" stroke="black" fill="none" stroke-width="250" />
	</mask>

	<mask id="m-cat-arc-1" maskUnits="userSpaceOnUse" >
		<rect height="2000" width="1732" fill="white" />
		<path d="M1750 1299 Q1000 866, 250 1299" stroke="black" fill="none" stroke-width="250" />
	</mask>

	<mask id="m-cat-arc-2" maskUnits="userSpaceOnUse" >
		<rect height="2000" width="1732" fill="white" />
		<path d="M1000 1732 Q1000 866, 250 433" stroke="black" fill="none" stroke-width="250" />
	</mask>

	<mask id="m-cat-arc-3" maskUnits="userSpaceOnUse" >
		<rect height="2000" width="1732" fill="white" />
		<path d="M250 1299 Q1000 866, 1000 0" stroke="black" fill="none" stroke-width="250" />
	</mask>

	<mask id="m-cat-arc-4" maskUnits="userSpaceOnUse" >
		<rect height="2000" width="1732" fill="white" />
		<path d="M250 433 Q1000 866, 1750 433" stroke="black" fill="none" stroke-width="250" />
	</mask>

	<mask id="m-cat-arc-5" maskUnits="userSpaceOnUse" >
		<rect height="2000" width="1732" fill="white" />
		<path d="M1000 0 Q1000 866, 1750 1299" stroke="black" fill="none" stroke-width="250" />
	</mask>

	<mask id="m-straight-arc-0" maskUnits="userSpaceOnUse" >
		<rect height="2000" width="1732" fill="white" />
		<path d="M1000 0 L1000 1732" stroke="black" fill="none" stroke-width="250" />
	</mask>

	<mask id="m-straight-arc-1" maskUnits="userSpaceOnUse" >
		<rect height="2000" width="1732" fill="white" />
		<path d="M1750 433 L250 1299" stroke="black" fill="none" stroke-width="250" />
	</mask>

	<mask id="m-straight-arc-2" maskUnits="userSpaceOnUse" >
		<rect height="2000" width="1732" fill="white" />
		<path d="M1750 1299 L250 433" stroke="black" fill="none" stroke-width="250" />
	</mask>

	<mask id="m-straight-arc-3" maskUnits="userSpaceOnUse" >
		<rect height="2000" width="1732" fill="white" />
		<path d="M1000 1732 L1000 0" stroke="black" fill="none" stroke-width="250" />
	</mask>

	<mask id="m-straight-arc-4" maskUnits="userSpaceOnUse" >
		<rect height="2000" width="1732" fill="white" />
		<path d="M250 1299 L1750 433" stroke="black" fill="none" stroke-width="250" />
	</mask>

	<mask id="m-straight-arc-5" maskUnits="userSpaceOnUse" >
		<rect height="2000" width="1732" fill="white" />
		<path d="M250 433 L1750 1299" stroke="black" fill="none" stroke-width="250" />
	</mask>

	<mask id="m-triple-arc-0" maskUnits="userSpaceOnUse" >
		<rect height="2000" width="1732" fill="white" />
		<path d="M1000 0 Q250 866, 1000 1732" stroke="black" fill="none" stroke-width="250" />
	</mask>

	<mask id="m-triple-arc-1" maskUnits="userSpaceOnUse" >
		<rect height="2000" width="1732" fill="white" />
		<path d="M1750 433 Q750 433, 250 1299" stroke="black" fill="none" stroke-width="250" />
	</mask>

	<mask id="m-triple-arc-2" maskUnits="userSpaceOnUse" >
		<rect height="2000" width="1732" fill="white" />
		<path d="M1750 1299 Q1250 433, 250 433" stroke="black" fill="none" stroke-width="250" />
	</mask>

	<mask id="m-triple-arc-3" maskUnits="userSpaceOnUse" >
		<rect height="2000" width="1732" fill="white" />
		<path d="M1000 1732 Q1750 866, 1000 0" stroke="black" fill="none" stroke-width="250" />
	</mask>

	<mask id="m-triple-arc-4" maskUnits="userSpaceOnUse" >
		<rect height="2000" width="1732" fill="white" />
		<path d="M250 1299 Q1250 1299, 1750 433" stroke="black" fill="none" stroke-width="250" />
	</mask>

	<mask id="m-triple-arc-5" maskUnits="userSpaceOnUse" >
		<rect height="2000" width="1732" fill="white" />
		<path d="M250 433 Q750 1299, 1750 1299" stroke="black" fill="none" stroke-width="250" />
	</mask>

	<mask id="m-double-cat-arc" maskUnits="userSpaceOnUse" >
		<rect height="2000" width="1732" fill="white" />
		<path d="M1750 433 Q1000 866, 1000 1732" stroke="black" fill="none" stroke-width="250" />
		<path d="M250 1299 Q1000 866, 1000 0" stroke="black" fill="none" stroke-width="250" />
	</mask>

	<mask id="m-double-triple-arc" maskUnits="userSpaceOnUse" >
		<rect height="2000" width="1732" fill="white" />
		<path d="M1000 0 Q250 866, 1000 1732" stroke="black" fill="none" stroke-width="250" />
		<path d="M250 1299 Q1250 1299, 1750 433" stroke="black" fill="none" stroke-width="250" />
	</mask>

</defs>

<use xlink:href="#hextile" x="6250" y="6928" fill="white"  />
<g transform="translate(6250, 6928) rotate(360, 1000, 866)" >
	<path d="M1000 0 Q250 866, 1000 1732" stroke="black" stroke-width="50" fill="none" mask="url(#m-triple-arc-2)" />
	<path d="M1750 1299 Q1250 433, 250 433" stroke="black" stroke-width="50" fill="none" mask="url(#m-triple-arc-4)" />
	<path d="M250 1299 Q1250 1299, 1750 433" stroke="black" stroke-width="50" fill="none" mask="url(#m-triple-arc-0)" />
</g>

<use xlink:href="#hextile" stroke="black" stroke-width="30" stroke-color="black" fill="blue" fill-opacity="0.17" transform ="translate(6250, 5196)"  />
<g transform="translate(6250, 5196) rotate(360, 1000, 866)" >
	<path d="M1000 0 Q250 866, 1000 1732" stroke="black" stroke-width="50" fill="none" mask="url(#m-triple-arc-2)" />
	<path d="M1750 1299 Q1250 433, 250 433" stroke="black" stroke-width="50" fill="none" mask="url(#m-triple-arc-4)" />
	<path d="M250 1299 Q1250 1299, 1750 433" stroke="black" stroke-width="50" fill="none" mask="url(#m-triple-arc-0)" />
</g>

<use xlink:href="#hextile" stroke="black" stroke-width="30" stroke-color="black" fill="blue" fill-opacity="0.17" transform ="translate(7750, 6062)"  />
<g transform="translate(7750, 6062) rotate(360, 1000, 866)" >
	<path d="M1000 0 Q250 866, 1000 1732" stroke="black" stroke-width="50" fill="none" mask="url(#m-triple-arc-2)" />
	<path d="M1750 1299 Q1250 433, 250 433" stroke="black" stroke-width="50" fill="none" mask="url(#m-triple-arc-4)" />
	<path d="M250 1299 Q1250 1299, 1750 433" stroke="black" stroke-width="50" fill="none" mask="url(#m-triple-arc-0)" />
</g>

<use xlink:href="#hextile" stroke="black" stroke-width="30" stroke-color="black" fill="blue" fill-opacity="0.17" transform ="translate(7750, 7794)"  />
<g transform="translate(7750, 7794) rotate(360, 1000, 866)" >
	<path d="M1000 0 Q250 866, 1000 1732" stroke="black" stroke-width="50" fill="none" mask="url(#m-triple-arc-2)" />
	<path d="M1750 1299 Q1250 433, 250 433" stroke="black" stroke-width="50" fill="none" mask="url(#m-triple-arc-4)" />
	<path d="M250 1299 Q1250 1299, 1750 433" stroke="black" stroke-width="50" fill="none" mask="url(#m-triple-arc-0)" />
</g>

<use xlink:href="#hextile" stroke="black" stroke-width="30" stroke-color="black" fill="blue" fill-opacity="0.17" transform ="translate(6250, 8660)"  />
<g transform="translate(6250, 8660) rotate(360, 1000, 866)" >
	<path d="M1000 0 Q250 866, 1000 1732" stroke="black" stroke-width="50" fill="none" mask="url(#m-triple-arc-2)" />
	<path d="M1750 1299 Q1250 433, 250 433" stroke="black" stroke-width="50" fill="none" mask="url(#m-triple-arc-4)" />
	<path d="M250 1299 Q1250 1299, 1750 433" stroke="black" stroke-width="50" fill="none" mask="url(#m-triple-arc-0)" />
</g>

<use xlink:href="#hextile" stroke="black" stroke-width="30" stroke-color="black" fill="blue" fill-opacity="0.17" transform ="translate(4750, 7794)"  />
<g transform="translate(4750, 7794) rotate(360, 1000, 866)" >
	<path d="M1000 0 Q250 866, 1000 1732" stroke="black" stroke-width="50" fill="none" mask="url(#m-triple-arc-2)" />
	<path d="M1750 1299 Q1250 433, 250 433" stroke="black" stroke-width="50" fill="none" mask="url(#m-triple-arc-4)" />
	<path d="M250 1299 Q1250 1299, 1750 433" stroke="black" stroke-width="50" fill="none" mask="url(#m-triple-arc-0)" />
</g>

<use xlink:href="#hextile" stroke="black" stroke-width="30" stroke-color="black" fill="blue" fill-opacity="0.17" transform ="translate(4750, 6062)"  />
<g transform="translate(4750, 6062) rotate(360, 1000, 866)" >
	<path d="M1000 0 Q250 866, 1000 1732" stroke="black" stroke-width="50" fill="none" mask="url(#m-triple-arc-2)" />
	<path d="M1750 1299 Q1250 433, 250 433" stroke="black" stroke-width="50" fill="none" mask="url(#m-triple-arc-4)" />
	<path d="M250 1299 Q1250 1299, 1750 433" stroke="black" stroke-width="50" fill="none" mask="url(#m-triple-arc-0)" />
</g>

<use xlink:href="#hextile" stroke="black" stroke-width="30" stroke-color="black" fill="blue" fill-opacity="0.33" transform ="translate(6250, 3464)"  />
<g transform="translate(6250, 3464) rotate(360, 1000, 866)" >
	<path d="M1000 0 Q250 866, 1000 1732" stroke="black" stroke-width="50" fill="none" mask="url(#m-triple-arc-2)" />
	<path d="M1750 1299 Q1250 433, 250 433" stroke="black" stroke-width="50" fill="none" mask="url(#m-triple-arc-4)" />
	<path d="M250 1299 Q1250 1299, 1750 433" stroke="black" stroke-width="50" fill="none" mask="url(#m-triple-arc-0)" />
</g>

<use xlink:href="#hextile" stroke="black" stroke-width="30" stroke-color="black" fill="blue" fill-opacity="0.33" transform ="translate(7750, 4330)"  />
<g transform="translate(7750, 4330) rotate(360, 1000, 866)" >
	<path d="M1000 0 Q250 866, 1000 1732" stroke="black" stroke-width="50" fill="none" mask="url(#m-triple-arc-2)" />
	<path d="M1750 1299 Q1250 433, 250 433" stroke="black" stroke-width="50" fill="none" mask="url(#m-triple-arc-4)" />
	<path d="M250 1299 Q1250 1299, 1750 433" stroke="black" stroke-width="50" fill="none" mask="url(#m-triple-arc-0)" />
</g>

<use xlink:href="#hextile" stroke="black" stroke-width="30" stroke-color="black" fill="blue" fill-opacity="0.33" transform ="translate(9250, 5196)"  />
<g transform="translate(9250, 5196) rotate(360, 1000, 866)" >
	<path d="M1000 0 Q250 866, 1000 1732" stroke="black" stroke-width="50" fill="none" mask="url(#m-triple-arc-2)" />
	<path d="M1750 1299 Q1250 433, 250 433" stroke="black" stroke-width="50" fill="none" mask="url(#m-triple-arc-4)" />
	<path d="M250 1299 Q1250 1299, 1750 433" stroke="black" stroke-width="50" fill="none" mask="url(#m-triple-arc-0)" />
</g>

<use xlink:href="#hextile" stroke="black" stroke-width="30" stroke-color="black" fill="blue" fill-opacity="0.33" transform ="translate(9250, 6928)"  />
<g transform="translate(9250, 6928) rotate(360, 1000, 866)" >
	<path d="M1000 0 Q250 866, 1000 1732" stroke="black" stroke-width="50" fill="none" mask="url(#m-triple-arc-2)" />
	<path d="M1750 1299 Q1250 433, 250 433" stroke="black" stroke-width="50" fill="none" mask="url(#m-triple-arc-4)" />
	<path d="M250 1299 Q1250 1299, 1750 433" stroke="black" stroke-width="50" fill="none" mask="url(#m-triple-arc-0)" />
</g>

<use xlink:href="#hextile" stroke="black" stroke-width="30" stroke-color="black" fill="blue" fill-opacity="0.33" transform ="translate(9250, 8660)"  />
<g transform="translate(9250, 8660) rotate(360, 1000, 866)" >
	<path d="M1000 0 Q250 866, 1000 1732" stroke="black" stroke-width="50" fill="none" mask="url(#m-triple-arc-2)" />
	<path d="M1750 1299 Q1250 433, 250 433" stroke="black" stroke-width="50" fill="none" mask="url(#m-triple-arc-4)" />
	<path d="M250 1299 Q1250 1299, 1750 433" stroke="black" stroke-width="50" fill="none" mask="url(#m-triple-arc-0)" />
</g>

<use xlink:href="#hextile" stroke="black" stroke-width="30" stroke-color="black" fill="blue" fill-opacity="0.33" transform ="translate(7750, 9526)"  />
<g transform="translate(7750, 9526) rotate(360, 1000, 866)" >
	<path d="M1000 0 Q250 866, 1000 1732" stroke="black" stroke-width="50" fill="none" mask="url(#m-triple-arc-2)" />
	<path d="M1750 1299 Q1250 433, 250 433" stroke="black" stroke-width="50" fill="none" mask="url(#m-triple-arc-4)" />
	<path d="M250 1299 Q1250 1299, 1750 433" stroke="black" stroke-width="50" fill="none" mask="url(#m-triple-arc-0)" />
</g>

<use xlink:href="#hextile" stroke="black" stroke-width="30" stroke-color="black" fill="blue" fill-opacity="0.33" transform ="translate(6250, 10392)"  />
<g transform="translate(6250, 10392) rotate(360, 1000, 866)" >
	<path d="M1000 0 Q250 866, 1000 1732" stroke="black" stroke-width="50" fill="none" mask="url(#m-triple-arc-2)" />
	<path d="M1750 1299 Q1250 433, 250 433" stroke="black" stroke-width="50" fill="none" mask="url(#m-triple-arc-4)" />
	<path d="M250 1299 Q1250 1299, 1750 433" stroke="black" stroke-width="50" fill="none" mask="url(#m-triple-arc-0)" />
</g>

<use xlink:href="#hextile" stroke="black" stroke-width="30" stroke-color="black" fill="blue" fill-opacity="0.33" transform ="translate(4750, 9526)"  />
<g transform="translate(4750, 9526) rotate(360, 1000, 866)" >
	<path d="M1000 0 Q250 866, 1000 1732" stroke="black" stroke-width="50" fill="none" mask="url(#m-triple-arc-2)" />
	<path d="M1750 1299 Q1250 433, 250 433" stroke="black" stroke-width="50" fill="none" mask="url(#m-triple-arc-4)" />
	<path d="M250 1299 Q1250 1299, 1750 433" stroke="black" stroke-width="50" fill="none" mask="url(#m-triple-arc-0)" />
</g>

<use xlink:href="#hextile" stroke="black" stroke-width="30" stroke-color="black" fill="blue" fill-opacity="0.33" transform ="translate(3250, 8660)"  />
<g transform="translate(3250, 8660) rotate(360, 1000, 866)" >
	<path d="M1000 0 Q250 866, 1000 1732" stroke="black" stroke-width="50" fill="none" mask="url(#m-triple-arc-2)" />
	<path d="M1750 1299 Q1250 433, 250 433" stroke="black" stroke-width="50" fill="none" mask="url(#m-triple-arc-4)" />
	<path d="M250 1299 Q1250 1299, 1750 433" stroke="black" stroke-width="50" fill="none" mask="url(#m-triple-arc-0)" />
</g>

<use xlink:href="#hextile" stroke="black" stroke-width="30" stroke-color="black" fill="blue" fill-opacity="0.33" transform ="translate(3250, 6928)"  />
<g transform="translate(3250, 6928) rotate(360, 1000, 866)" >
	<path d="M1000 0 Q250 866, 1000 1732" stroke="black" stroke-width="50" fill="none" mask="url(#m-triple-arc-2)" />
	<path d="M1750 1299 Q1250 433, 250 433" stroke="black" stroke-width="50" fill="none" mask="url(#m-triple-arc-4)" />
	<path d="M250 1299 Q1250 1299, 1750 433" stroke="black" stroke-width="50" fill="none" mask="url(#m-triple-arc-0)" />
</g>

<use xlink:href="#hextile" stroke="black" stroke-width="30" stroke-color="black" fill="blue" fill-opacity="0.33" transform ="translate(3250, 5196)"  />
<g transform="translate(3250, 5196) rotate(360, 1000, 866)" >
	<path d="M1000 0 Q250 866, 1000 1732" stroke="black" stroke-width="50" fill="none" mask="url(#m-triple-arc-2)" />
	<path d="M1750 1299 Q1250 433, 250 433" stroke="black" stroke-width="50" fill="none" mask="url(#m-triple-arc-4)" />
	<path d="M250 1299 Q1250 1299, 1750 433" stroke="black" stroke-width="50" fill="none" mask="url(#m-triple-arc-0)" />
</g>

<use xlink:href="#hextile" stroke="black" stroke-width="30" stroke-color="black" fill="blue" fill-opacity="0.33" transform ="translate(4750, 4330)"  />
<g transform="translate(4750, 4330) rotate(360, 1000, 866)" >
	<path d="M1000 0 Q250 866, 1000 1732" stroke="black" stroke-width="50" fill="none" mask="url(#m-triple-arc-2)" />
	<path d="M1750 1299 Q1250 433, 250 433" stroke="black" stroke-width="50" fill="none" mask="url(#m-triple-arc-4)" />
	<path d="M250 1299 Q1250 1299, 1750 433" stroke="black" stroke-width="50" fill="none" mask="url(#m-triple-arc-0)" />
</g>

<use xlink:href="#hextile" stroke="black" stroke-width="30" stroke-color="black" fill="blue" fill-opacity="0.50" transform ="translate(6250, 1732)"  />
<g transform="translate(6250, 1732) rotate(60, 1000, 866)" >
	<path d="M1750 433 Q1000 866, 1750 1299" stroke="black" stroke-width="50" fill="none" />
</g>

<use xlink:href="#hextile" stroke="black" stroke-width="30" stroke-color="black" fill="blue" fill-opacity="0.50" transform ="translate(7750, 2598)"  />
<g transform="translate(7750, 2598) rotate(60, 1000, 866)" >
	<path d="M1750 433 Q1000 866, 1750 1299" stroke="black" stroke-width="50" fill="none" />
	<path d="M1000 1732 Q1000 866, 250 1299" stroke="black" stroke-width="50" fill="none" />
</g>

<use xlink:href="#hextile" stroke="black" stroke-width="30" stroke-color="black" fill="blue" fill-opacity="0.50" transform ="translate(9250, 3464)"  />
<g transform="translate(9250, 3464) rotate(60, 1000, 866)" >
	<path d="M1750 433 Q1000 866, 1750 1299" stroke="black" stroke-width="50" fill="none" />
	<path d="M1000 1732 Q1000 866, 250 1299" stroke="black" stroke-width="50" fill="none" />
</g>

<use xlink:href="#hextile" stroke="black" stroke-width="30" stroke-color="black" fill="blue" fill-opacity="0.50" transform ="translate(10750, 4330)"  />
<g transform="translate(10750, 4330) rotate(180, 1000, 866)" >
	<path d="M1750 433 Q1000 866, 1750 1299" stroke="black" stroke-width="50" fill="none" />
</g>

<use xlink:href="#hextile" stroke="black" stroke-width="30" stroke-color="black" fill="blue" fill-opacity="0.50" transform ="translate(10750, 6062)"  />
<g transform="translate(10750, 6062) rotate(180, 1000, 866)" >
	<path d="M1750 433 Q1000 866, 1750 1299" stroke="black" stroke-width="50" fill="none" />
</g>

<use xlink:href="#hextile" stroke="black" stroke-width="30" stroke-color="black" fill="blue" fill-opacity="0.50" transform ="translate(10750, 7794)"  />
<g transform="translate(10750, 7794) rotate(180, 1000, 866)" >
	<path d="M1750 433 Q1000 866, 1750 1299" stroke="black" stroke-width="50" fill="none" />
</g>

<use xlink:href="#hextile" stroke="black" stroke-width="30" stroke-color="black" fill="blue" fill-opacity="0.50" transform ="translate(10750, 9526)"  />
<g transform="translate(10750, 9526) rotate(180, 1000, 866)" >
	<path d="M1750 433 Q1000 866, 1750 1299" stroke="black" stroke-width="50" fill="none" />
</g>

<use xlink:href="#hextile" stroke="black" stroke-width="30" stroke-color="black" fill="blue" fill-opacity="0.50" transform ="translate(9250, 10392)"  />
<g transform="translate(9250, 10392) rotate(180, 1000, 866)" >
	<path d="M1750 433 Q1000 866, 1750 1299" stroke="black" stroke-width="50" fill="none" />
	<path d="M1000 1732 Q1000 866, 250 1299" stroke="black" stroke-width="50" fill="none" />
</g>

<use xlink:href="#hextile" stroke="black" stroke-width="30" stroke-color="black" fill="blue" fill-opacity="0.50" transform ="translate(7750, 11258)"  />
<g transform="translate(7750, 11258) rotate(180, 1000, 866)" >
	<path d="M1750 433 Q1000 866, 1750 1299" stroke="black" stroke-width="50" fill="none" />
	<path d="M1000 1732 Q1000 866, 250 1299" stroke="black" stroke-width="50" fill="none" />
</g>

<use xlink:href="#hextile" stroke="black" stroke-width="30" stroke-color="black" fill="blue" fill-opacity="0.50" transform ="translate(6250, 12124)"  />
<g transform="translate(6250, 12124) rotate(300, 1000, 866)" >
	<path d="M1750 433 Q1000 866, 1750 1299" stroke="black" stroke-width="50" fill="none" />
</g>

<use xlink:href="#hextile" stroke="black" stroke-width="30" stroke-color="black" fill="blue" fill-opacity="0.50" transform ="translate(4750, 11258)"  />
<g transform="translate(4750, 11258) rotate(300, 1000, 866)" >
	<path d="M1750 433 Q1000 866, 1750 1299" stroke="black" stroke-width="50" fill="none" />
</g>

<use xlink:href="#hextile" stroke="black" stroke-width="30" stroke-color="black" fill="blue" fill-opacity="0.50" transform ="translate(3250, 10392)"  />
<g transform="translate(3250, 10392) rotate(300, 1000, 866)" >
	<path d="M1750 433 Q1000 866, 1750 1299" stroke="black" stroke-width="50" fill="none" />
</g>

<use xlink:href="#hextile" stroke="black" stroke-width="30" stroke-color="black" fill="blue" fill-opacity="0.50" transform ="translate(1750, 9526)"  />
<g transform="translate(1750, 9526) rotate(300, 1000, 866)" >
	<path d="M1750 433 Q1000 866, 1750 1299" stroke="black" stroke-width="50" fill="none" />
</g>

<use xlink:href="#hextile" stroke="black" stroke-width="30" stroke-color="black" fill="blue" fill-opacity="0.50" transform ="translate(1750, 7794)"  />
<g transform="translate(1750, 7794) rotate(300, 1000, 866)" >
	<path d="M1750 433 Q1000 866, 1750 1299" stroke="black" stroke-width="50" fill="none" />
	<path d="M1000 1732 Q1000 866, 250 1299" stroke="black" stroke-width="50" fill="none" />
</g>

<use xlink:href="#hextile" stroke="black" stroke-width="30" stroke-color="black" fill="blue" fill-opacity="0.50" transform ="translate(1750, 6062)"  />
<g transform="translate(1750, 6062) rotate(300, 1000, 866)" >
	<path d="M1750 433 Q1000 866, 1750 1299" stroke="black" stroke-width="50" fill="none" />
	<path d="M1000 1732 Q1000 866, 250 1299" stroke="black" stroke-width="50" fill="none" />
</g>

<use xlink:href="#hextile" stroke="black" stroke-width="30" stroke-color="black" fill="blue" fill-opacity="0.50" transform ="translate(1750, 4330)"  />
<g transform="translate(1750, 4330) rotate(420, 1000, 866)" >
	<path d="M1750 433 Q1000 866, 1750 1299" stroke="black" stroke-width="50" fill="none" />
</g>

<use xlink:href="#hextile" stroke="black" stroke-width="30" stroke-color="black" fill="blue" fill-opacity="0.50" transform ="translate(3250, 3464)"  />
<g transform="translate(3250, 3464) rotate(420, 1000, 866)" >
	<path d="M1750 433 Q1000 866, 1750 1299" stroke="black" stroke-width="50" fill="none" />
</g>

<use xlink:href="#hextile" stroke="black" stroke-width="30" stroke-color="black" fill="blue" fill-opacity="0.50" transform ="translate(4750, 2598)"  />
<g transform="translate(4750, 2598) rotate(420, 1000, 866)" >
	<path d="M1750 433 Q1000 866, 1750 1299" stroke="black" stroke-width="50" fill="none" />
</g>

</svg>
