<?xml version="1.0"?>
<svg xmlns="http://www.w3.org/2000/svg" xmlns:xlink="http://www.w3.org/1999/xlink" width="800" height="800" viewBox="0 0 19052 19052" transform="rotate(30, 400, 400)" >

<defs>
	<polygon id="hextile" stroke="black" stroke-width="30" points="500,0 1500,0 2000,866 1500,1732 500,1732 0,866" />

	<mask id="mCArc0" maskUnits="userSpaceOnUse" x="0" y="0" height="1732" width="2000" mask-type="luminance" >
		<rect height="1732" width="2000" fill="#ffffff" fill-opacity="1.0" />
		<path d="M1750 433 Q1000 866, 1750 1299" stroke="#000000" stroke-opacity="1.0" fill="none" stroke-width="300" />
		</mask>

	<mask id="mCArc1" maskUnits="userSpaceOnUse" x="0" y="0" height="1732" width="2000" mask-type="luminance" >
		<rect height="1732" width="2000" fill="#ffffff" fill-opacity="1.0" />
		<path d="M1750 1299 Q1000 866, 1000 1732" stroke="#000000" stroke-opacity="1.0" fill="none" stroke-width="300" />
		</mask>

	<mask id="mCArc2" maskUnits="userSpaceOnUse" x="0" y="0" height="1732" width="2000" mask-type="luminance" >
		<rect height="1732" width="2000" fill="#ffffff" fill-opacity="1.0" />
		<path d="M1000 1732 Q1000 866, 250 1299" stroke="#000000" stroke-opacity="1.0" fill="none" stroke-width="300" />
		</mask>

	<mask id="mCArc3" maskUnits="userSpaceOnUse" x="0" y="0" height="1732" width="2000" mask-type="luminance" >
		<rect height="1732" width="2000" fill="#ffffff" fill-opacity="1.0" />
		<path d="M250 1299 Q1000 866, 250 433" stroke="#000000" stroke-opacity="1.0" fill="none" stroke-width="300" />
		</mask>

	<mask id="mCArc4" maskUnits="userSpaceOnUse" x="0" y="0" height="1732" width="2000" mask-type="luminance" >
		<rect height="1732" width="2000" fill="#ffffff" fill-opacity="1.0" />
		<path d="M250 433 Q1000 866, 1000 0" stroke="#000000" stroke-opacity="1.0" fill="none" stroke-width="300" />
		</mask>

	<mask id="mCArc5" maskUnits="userSpaceOnUse" x="0" y="0" height="1732" width="2000" mask-type="luminance" >
		<rect height="1732" width="2000" fill="#ffffff" fill-opacity="1.0" />
		<path d="M1000 0 Q1000 866, 1750 433" stroke="#000000" stroke-opacity="1.0" fill="none" stroke-width="300" />
		</mask>

	<mask id="mCatArc0" maskUnits="userSpaceOnUse" x="0" y="0" height="1732" width="2000" mask-type="luminance" >
		<rect height="1732" width="2000" fill="#ffffff" fill-opacity="1.0" />
		<path d="M1750 433 Q1000 866, 1000 1732" stroke="#000000" stroke-opacity="1.0" fill="none" stroke-width="300" />
		</mask>

	<mask id="mCatArc1" maskUnits="userSpaceOnUse" x="0" y="0" height="1732" width="2000" mask-type="luminance" >
		<rect height="1732" width="2000" fill="#ffffff" fill-opacity="1.0" />
		<path d="M1750 1299 Q1000 866, 250 1299" stroke="#000000" stroke-opacity="1.0" fill="none" stroke-width="300" />
		</mask>

	<mask id="mCatArc2" maskUnits="userSpaceOnUse" x="0" y="0" height="1732" width="2000" mask-type="luminance" >
		<rect height="1732" width="2000" fill="#ffffff" fill-opacity="1.0" />
		<path d="M1000 1732 Q1000 866, 250 433" stroke="#000000" stroke-opacity="1.0" fill="none" stroke-width="300" />
		</mask>

	<mask id="mCatArc3" maskUnits="userSpaceOnUse" x="0" y="0" height="1732" width="2000" mask-type="luminance" >
		<rect height="1732" width="2000" fill="#ffffff" fill-opacity="1.0" />
		<path d="M250 1299 Q1000 866, 1000 0" stroke="#000000" stroke-opacity="1.0" fill="none" stroke-width="300" />
		</mask>

	<mask id="mCatArc4" maskUnits="userSpaceOnUse" x="0" y="0" height="1732" width="2000" mask-type="luminance" >
		<rect height="1732" width="2000" fill="#ffffff" fill-opacity="1.0" />
		<path d="M250 433 Q1000 866, 1750 433" stroke="#000000" stroke-opacity="1.0" fill="none" stroke-width="300" />
		</mask>

	<mask id="mCatArc5" maskUnits="userSpaceOnUse" x="0" y="0" height="1732" width="2000" mask-type="luminance" >
		<rect height="1732" width="2000" fill="#ffffff" fill-opacity="1.0" />
		<path d="M1000 0 Q1000 866, 1750 1299" stroke="#000000" stroke-opacity="1.0" fill="none" stroke-width="300" />
		</mask>

	<mask id="mStraightArc0" maskUnits="userSpaceOnUse" x="0" y="0" height="1732" width="2000" mask-type="luminance" >
		<rect height="1732" width="2000" fill="#ffffff" fill-opacity="1.0" />
		<path d="M1000 0 L1000 1732" stroke="#000000" stroke-opacity="1.0" fill="none" stroke-width="300" />
		</mask>

	<mask id="mStraightArc1" maskUnits="userSpaceOnUse" x="0" y="0" height="1732" width="2000" mask-type="luminance" >
		<rect height="1732" width="2000" fill="#ffffff" fill-opacity="1.0" />
		<path d="M1750 433 L250 1299" stroke="#000000" stroke-opacity="1.0" fill="none" stroke-width="300" />
		</mask>

	<mask id="mStraightArc2" maskUnits="userSpaceOnUse" x="0" y="0" height="1732" width="2000" mask-type="luminance" >
		<rect height="1732" width="2000" fill="#ffffff" fill-opacity="1.0" />
		<path d="M1750 1299 L250 433" stroke="#000000" stroke-opacity="1.0" fill="none" stroke-width="300" />
		</mask>

	<mask id="mStraightArc3" maskUnits="userSpaceOnUse" x="0" y="0" height="1732" width="2000" mask-type="luminance" >
		<rect height="1732" width="2000" fill="#ffffff" fill-opacity="1.0" />
		<path d="M1000 1732 L1000 0" stroke="#000000" stroke-opacity="1.0" fill="none" stroke-width="300" />
		</mask>

	<mask id="mStraightArc4" maskUnits="userSpaceOnUse" x="0" y="0" height="1732" width="2000" mask-type="luminance" >
		<rect height="1732" width="2000" fill="#ffffff" fill-opacity="1.0" />
		<path d="M250 1299 L1750 433" stroke="#000000" stroke-opacity="1.0" fill="none" stroke-width="300" />
		</mask>

	<mask id="mStraightArc5" maskUnits="userSpaceOnUse" x="0" y="0" height="1732" width="2000" mask-type="luminance" >
		<rect height="1732" width="2000" fill="#ffffff" fill-opacity="1.0" />
		<path d="M250 433 L1750 1299" stroke="#000000" stroke-opacity="1.0" fill="none" stroke-width="300" />
		</mask>

	<mask id="mTripleArc0" maskUnits="userSpaceOnUse" x="0" y="0" height="1732" width="2000" mask-type="luminance" >
		<rect height="1732" width="2000" fill="#ffffff" fill-opacity="1.0" />
		<path d="M1000 0 Q250 866, 1000 1732" stroke="#000000" stroke-opacity="1.0" fill="none" stroke-width="300" />
		</mask>

	<mask id="mTripleArc1" maskUnits="userSpaceOnUse" x="0" y="0" height="1732" width="2000" mask-type="luminance" >
		<rect height="1732" width="2000" fill="#ffffff" fill-opacity="1.0" />
		<path d="M1750 433 Q750 433, 250 1299" stroke="#000000" stroke-opacity="1.0" fill="none" stroke-width="300" />
		</mask>

	<mask id="mTripleArc2" maskUnits="userSpaceOnUse" x="0" y="0" height="1732" width="2000" mask-type="luminance" >
		<rect height="1732" width="2000" fill="#ffffff" fill-opacity="1.0" />
		<path d="M1750 1299 Q1250 433, 250 433" stroke="#000000" stroke-opacity="1.0" fill="none" stroke-width="300" />
		</mask>

	<mask id="mTripleArc3" maskUnits="userSpaceOnUse" x="0" y="0" height="1732" width="2000" mask-type="luminance" >
		<rect height="1732" width="2000" fill="#ffffff" fill-opacity="1.0" />
		<path d="M1000 1732 Q1750 866, 1000 0" stroke="#000000" stroke-opacity="1.0" fill="none" stroke-width="300" />
		</mask>

	<mask id="mTripleArc4" maskUnits="userSpaceOnUse" x="0" y="0" height="1732" width="2000" mask-type="luminance" >
		<rect height="1732" width="2000" fill="#ffffff" fill-opacity="1.0" />
		<path d="M250 1299 Q1250 1299, 1750 433" stroke="#000000" stroke-opacity="1.0" fill="none" stroke-width="300" />
		</mask>

	<mask id="mTripleArc5" maskUnits="userSpaceOnUse" x="0" y="0" height="1732" width="2000" mask-type="luminance" >
		<rect height="1732" width="2000" fill="#ffffff" fill-opacity="1.0" />
		<path d="M250 433 Q750 1299, 1750 1299" stroke="#000000" stroke-opacity="1.0" fill="none" stroke-width="300" />
		</mask>

	<mask id="mDoubleCatArc" maskUnits="userSpaceOnUse" x="0" y="0" height="1732" width="2000" mask-type="luminance" >
		<rect height="1732" width="2000" fill="#ffffff" fill-opacity="1.0" />
		<path d="M1750 433 Q1000 866, 1000 1732" stroke="#000000" stroke-opacity="1.0" fill="none" stroke-width="300" />
		<path d="M250 1299 Q1000 866, 1000 0" stroke="#000000" stroke-opacity="1.0" fill="none" stroke-width="300" />
		</mask>

	<mask id="mDoubleTripleArc" maskUnits="userSpaceOnUse" x="0" y="0" height="1732" width="2000" mask-type="luminance" >
		<rect height="1732" width="2000" fill="#ffffff" fill-opacity="1.0" />
		<path d="M1000 0 Q250 866, 1000 1732" stroke="#000000" stroke-opacity="1.0" fill="none" stroke-width="300" />
		<path d="M250 1299 Q1250 1299, 1750 433" stroke="#000000" stroke-opacity="1.0" fill="none" stroke-width="300" />
		</mask>

</defs>

<g id="tileK0T1" transform="translate(10000, 6268) rotate(120, 1000, 866)" >
	<path d="M1750 433 Q1000 866, 1750 1299" stroke="black" stroke-width="100" fill="none" />
</g>

<g id="tileK-1T1" transform="translate(8500, 7134) rotate(0, 1000, 866)" >
	<path d="M1750 433 Q1000 866, 1750 1299" stroke="black" stroke-width="100" fill="none" />
	<path d="M1000 1732 Q1000 866, 250 1299" stroke="black" stroke-width="100" fill="none" />
</g>

<g id="tileK1T0" transform="translate(11500, 7134) rotate(120, 1000, 866)" >
	<path d="M1750 433 Q1000 866, 1750 1299" stroke="black" stroke-width="100" fill="none" />
</g>

<g id="tileK0T0" transform="translate(10000, 8000) rotate(300, 1000, 866)" >
	<path d="M1750 433 Q1000 866, 1000 1732" stroke="black" stroke-width="100" fill="none" />
	<path d="M250 1299 Q1000 866, 1000 0" stroke="black" stroke-width="100" fill="none" mask="url(#mStraightArc2)" />
	<path d="M1750 1299 L250 433" stroke="black" stroke-width="100" fill="none" mask="url(#mCatArc0)" />
</g>

<g id="tileK-1T0" transform="translate(8500, 8866) rotate(300, 1000, 866)" >
	<path d="M1750 433 Q1000 866, 1000 1732" stroke="black" stroke-width="100" fill="none" />
	<path d="M250 1299 Q1000 866, 1000 0" stroke="black" stroke-width="100" fill="none" mask="url(#mStraightArc2)" />
	<path d="M1750 1299 L250 433" stroke="black" stroke-width="100" fill="none" mask="url(#mCatArc0)" />
</g>

<g id="tileK2T-1" transform="translate(13000, 8000) rotate(120, 1000, 866)" >
	<path d="M1750 433 Q1000 866, 1750 1299" stroke="black" stroke-width="100" fill="none" />
</g>

<g id="tileK1T-1" transform="translate(11500, 8866) rotate(60, 1000, 866)" >
	<path d="M1000 1732 Q1000 866, 250 433" stroke="black" stroke-width="100" fill="none" />
	<path d="M1750 1299 Q1000 866, 250 1299" stroke="black" stroke-width="100" fill="none" mask="url(#mCatArc2)" />
	<path d="M1000 0 Q1000 866, 1750 433" stroke="black" stroke-width="100" fill="none" />
</g>

<g id="tileK0T-1" transform="translate(10000, 9732) rotate(60, 1000, 866)" >
	<path d="M1750 433 Q1000 866, 1750 1299" stroke="black" stroke-width="100" fill="none" />
	<path d="M250 1299 Q1000 866, 250 433" stroke="black" stroke-width="100" fill="none" />
	<path d="M1000 0 L1000 1732" stroke="black" stroke-width="100" fill="none" />
</g>

<g id="tileK3T-2" transform="translate(14500, 8866) rotate(120, 1000, 866)" >
	<path d="M1750 433 Q1000 866, 1750 1299" stroke="black" stroke-width="100" fill="none" />
</g>

<g id="tileK2T-2" transform="translate(13000, 9732) rotate(300, 1000, 866)" >
	<path d="M1750 433 Q1000 866, 1000 1732" stroke="black" stroke-width="100" fill="none" />
	<path d="M250 1299 Q1000 866, 1000 0" stroke="black" stroke-width="100" fill="none" mask="url(#mStraightArc2)" />
	<path d="M1750 1299 L250 433" stroke="black" stroke-width="100" fill="none" mask="url(#mCatArc0)" />
</g>

<g id="tileK1T-2" transform="translate(11500, 10598) rotate(60, 1000, 866)" >
	<path d="M1000 0 Q250 866, 1000 1732" stroke="black" stroke-width="100" fill="none" mask="url(#mTripleArc4)" />
	<path d="M1750 1299 Q1250 433, 250 433" stroke="black" stroke-width="100" fill="none" mask="url(#mDoubleTripleArc)" />
	<path d="M250 1299 Q1250 1299, 1750 433" stroke="black" stroke-width="100" fill="none" />
</g>

<g id="tileK0T-2" transform="translate(10000, 11464) rotate(180, 1000, 866)" >
	<path d="M1000 0 Q250 866, 1000 1732" stroke="black" stroke-width="100" fill="none" mask="url(#mTripleArc4)" />
	<path d="M1750 1299 Q1250 433, 250 433" stroke="black" stroke-width="100" fill="none" mask="url(#mDoubleTripleArc)" />
	<path d="M250 1299 Q1250 1299, 1750 433" stroke="black" stroke-width="100" fill="none" />
</g>

<g id="tileK2T-3" transform="translate(13000, 11464) rotate(240, 1000, 866)" >
	<path d="M1750 433 Q1000 866, 1750 1299" stroke="black" stroke-width="100" fill="none" />
	<path d="M1000 1732 Q1000 866, 250 1299" stroke="black" stroke-width="100" fill="none" />
</g>

<g id="tileK0T-3" transform="translate(10000, 13196) rotate(240, 1000, 866)" >
	<path d="M1750 433 Q1000 866, 1750 1299" stroke="black" stroke-width="100" fill="none" />
	<path d="M1000 1732 Q1000 866, 250 1299" stroke="black" stroke-width="100" fill="none" />
</g>

<use xlink:href="#hextile" stroke="black" stroke-width="30" stroke-color="black" fill="none" fill-opacity="1.00" transform ="translate(8500, 7134)"  />
<use xlink:href="#hextile" stroke="black" stroke-width="30" stroke-color="black" fill="none" fill-opacity="1.00" transform ="translate(10000, 6268)"  />
<use xlink:href="#hextile" stroke="black" stroke-width="30" stroke-color="black" fill="none" fill-opacity="1.00" transform ="translate(8500, 8866)"  />
<use xlink:href="#hextile" stroke="black" stroke-width="30" stroke-color="black" fill="none" fill-opacity="1.00" transform ="translate(10000, 9732)"  />
<use xlink:href="#hextile" stroke="black" stroke-width="30" stroke-color="black" fill="none" fill-opacity="1.00" transform ="translate(10000, 8000)"  />
<use xlink:href="#hextile" stroke="black" stroke-width="30" stroke-color="black" fill="none" fill-opacity="1.00" transform ="translate(11500, 8866)"  />
<use xlink:href="#hextile" stroke="black" stroke-width="30" stroke-color="black" fill="none" fill-opacity="1.00" transform ="translate(11500, 7134)"  />
<use xlink:href="#hextile" stroke="black" stroke-width="30" stroke-color="black" fill="none" fill-opacity="1.00" transform ="translate(13000, 8000)"  />
<use xlink:href="#hextile" stroke="black" stroke-width="30" stroke-color="black" fill="none" fill-opacity="1.00" transform ="translate(10000, 11464)"  />
<use xlink:href="#hextile" stroke="black" stroke-width="30" stroke-color="black" fill="none" fill-opacity="1.00" transform ="translate(11500, 10598)"  />
<use xlink:href="#hextile" stroke="black" stroke-width="30" stroke-color="black" fill="none" fill-opacity="1.00" transform ="translate(13000, 9732)"  />
<use xlink:href="#hextile" stroke="black" stroke-width="30" stroke-color="black" fill="none" fill-opacity="1.00" transform ="translate(14500, 8866)"  />
<use xlink:href="#hextile" stroke="black" stroke-width="30" stroke-color="black" fill="none" fill-opacity="1.00" transform ="translate(10000, 13196)"  />
<use xlink:href="#hextile" stroke="black" stroke-width="30" stroke-color="black" fill="none" fill-opacity="1.00" transform ="translate(11500, 12330)"  />
<use xlink:href="#hextile" stroke="black" stroke-width="30" stroke-color="black" fill="none" fill-opacity="1.00" transform ="translate(13000, 11464)"  />
<use xlink:href="#hextile" stroke="black" stroke-width="30" stroke-color="black" fill="none" fill-opacity="1.00" transform ="translate(14500, 10598)"  />
<use xlink:href="#hextile" stroke="black" stroke-width="30" stroke-color="black" fill="none" fill-opacity="1.00" transform ="translate(16000, 9732)"  />
</svg>
